<?xml version="1.0" encoding="UTF-8" standalone="no"?>
<!DOCTYPE svg PUBLIC "-//W3C//DTD SVG 20010904//EN" "http://www.w3.org/TR/2001/REC-SVG-20010904/DTD/svg10.dtd">
<svg xmlns="http://www.w3.org/2000/svg" width="400px" height="400px" viewBox="0 0 400 400">
  <g stroke="none" stroke-width="0" fill="black">
    <path
          d="M 266.00,66.00
            C 283.00,55.75 307.50,51.00 326.75,53.00
              323.75,55.75 324.00,57.00 321.00,56.75
              309.75,55.25 288.25,57.75 273.25,66.50
              274.75,68.00 275.25,70.75 275.25,70.75
              275.25,70.75 297.25,67.75 321.75,70.75
              320.25,73.75 319.25,74.50 312.00,73.50
              304.75,72.50 289.00,72.00 275.00,73.50" />
    <path d="M 265.38,144.62
            C 266.00,143.25 268.88,140.25 273.38,142.50
              275.50,144.00 273.25,148.38 272.00,147.75
              270.75,147.12 268.50,145.38 267.88,145.75
              267.25,146.12 265.25,145.88 265.75,145.12" />
    <path d="M 229.00,144.00
            C 231.75,140.25 238.00,141.50 238.50,144.50
              239.00,147.50 236.12,147.75 234.38,147.25
              232.62,146.75 228.12,146.50 228.62,144.38" />
    <path d="M 255.50,170.25
            C 267.50,170.00 271.75,163.25 267.50,162.00
              263.25,160.75 251.75,160.50 245.25,163.00
              238.75,165.50 247.50,170.25 255.75,170.25" />
    <path d="M 189.50,324.75
            C 162.25,334.50 147.50,359.75 139.50,369.25
              156.00,374.25 197.50,362.00 238.50,368.00
              279.50,374.00 293.25,365.00 300.00,365.00
              306.75,365.00 363.75,371.75 376.50,368.25
              363.00,362.50 329.00,332.50 322.00,330.50
              317.75,329.00 314.25,332.50 314.25,332.50
              314.25,332.50 319.50,334.50 327.00,341.00
              334.50,347.50 356.00,363.50 361.00,364.50
              346.50,363.25 320.00,361.00 301.00,361.25
              282.00,361.50 274.25,367.25 235.50,362.00
              196.75,356.75 165.25,367.50 146.75,367.50
              154.50,363.00 166.00,338.25 182.00,332.50
              198.00,326.75 189.75,324.75 189.75,324.75" />
    <path d="M 286.00,260.00
            C 295.00,276.00 299.75,312.50 318.50,323.50
              321.75,325.75 324.75,324.75 324.50,318.25
              324.25,311.75 321.75,242.25 318.75,237.00
              315.75,231.75 311.50,234.75 313.50,236.75
              315.50,238.75 320.75,299.25 317.50,314.25
              309.25,315.50 295.75,268.00 292.00,259.25" />
    <path d="M 217.75,260.25
            C 220.00,253.75 226.50,254.00 221.50,268.75
              216.50,283.50 212.00,308.00 197.75,315.50
              190.75,319.75 192.25,310.25 190.75,310.75
              189.25,311.25 196.75,284.50 183.75,258.50
              182.25,255.50 185.25,251.75 188.50,255.00
              191.75,258.25 200.25,294.75 197.00,309.00
              201.00,309.50 215.25,284.25 218.00,261.25" />
    <path d="M 239.00,215.00
            C 248.75,212.00 262.50,210.00 273.00,213.50
              272.50,206.50 273.50,190.75 273.50,190.75
              273.50,190.75 267.25,190.00 267.25,190.00
              267.25,190.00 266.75,206.75 266.75,208.00
              266.75,209.25 258.75,207.25 258.75,207.25
              258.75,207.25 258.25,192.00 258.25,192.00
              258.25,192.00 261.50,189.00 261.50,189.00
              261.50,189.00 256.00,185.00 256.00,185.00
              256.00,185.00 252.25,187.75 252.25,187.75
              252.25,187.75 254.50,205.75 253.75,208.25
              248.75,208.25 242.50,210.00 242.50,210.00
              242.56,207.22 239.04,190.57 239.00,192.25
              239.00,192.25 231.50,187.75 233.75,192.50
              236.00,197.25 238.50,215.00 238.50,215.00" />
    <path d="M 213.50,172.50
            C 218.00,186.75 237.75,198.25 252.50,183.00
              254.00,180.50 253.00,174.00 253.00,174.00
              253.00,174.00 258.50,173.75 258.50,173.75
              258.50,173.75 258.25,182.00 258.75,183.00
              257.50,186.00 277.25,196.50 290.25,176.50
              292.75,178.00 295.00,180.75 295.00,180.75
              295.00,180.75 276.00,204.75 255.25,186.75
              243.50,199.25 217.00,197.75 209.50,175.00" />
    <path d="M 36.00,201.75
            C 12.50,108.50 100.50,51.25 187.25,105.00
              191.25,107.50 195.50,114.50 185.00,109.75
              65.50,45.00 25.75,147.50 36.75,196.25
              48.00,185.75 67.25,168.75 73.50,163.25
              79.75,157.75 80.75,193.00 80.50,201.50
              88.00,188.75 94.75,178.50 94.75,178.50
              94.75,178.50 99.25,218.00 99.25,218.00
              99.25,218.00 106.75,206.25 106.75,199.75
              113.00,205.00 118.75,224.25 114.75,237.25
              114.00,242.00 111.25,238.75 110.50,235.75
              109.75,232.75 112.00,219.00 108.00,206.75
              104.50,215.25 98.00,222.75 98.00,222.75
              98.00,222.75 93.50,222.50 93.00,219.50
              92.50,216.50 93.25,185.25 93.25,185.25
              93.25,185.25 80.50,211.50 75.75,214.00
              73.75,211.75 71.50,211.50 73.50,206.25
              75.50,201.00 80.50,181.25 73.25,167.50
              53.75,187.25 42.50,200.00 39.25,202.25
              36.00,204.50 36.00,201.50 36.00,201.50" />
    <path d="M 153.50,311.75
            C 98.25,273.75 124.00,174.75 149.00,164.00
              111.50,178.25 98.00,281.50 146.25,314.50" />
    <path d="M 327.00,192.75
            C 348.50,192.25 358.75,203.75 360.50,206.50
              362.25,209.25 356.00,209.00 356.00,209.00
              356.00,209.00 349.50,198.50 328.50,196.00" />
    <path d="M 314.00,198.50
            C 323.75,201.50 332.25,211.50 333.25,216.00
              334.25,220.50 328.25,220.50 328.25,220.50
              328.25,220.50 326.25,209.50 314.75,204.00
              311.25,202.75 313.75,198.75 313.75,198.75" />
    <path d="M 324.25,184.00
            C 341.00,180.75 356.50,184.25 358.50,185.75
              359.00,186.25 358.00,190.75 358.00,190.75
              358.00,190.75 352.50,184.25 327.25,186.75" />
    <path d="M 316.50,174.25
            C 327.75,167.75 342.50,165.50 350.50,168.75
              353.00,169.25 352.00,174.25 352.00,174.25
              352.25,175.75 346.00,167.50 319.50,176.50" />
    <path d="M 193.00,193.25
            C 179.25,192.50 174.50,199.50 168.50,212.25
              174.25,213.25 179.25,212.50 180.25,208.00
              181.25,203.50 187.50,196.00 192.50,193.50" />
    <path d="M 151.75,193.75
            C 162.25,184.50 176.50,182.75 184.25,189.50
              177.00,189.75 166.75,188.00 159.25,197.50
              156.00,195.50 152.00,194.50 152.00,194.50" />
    <path d="M 178.50,173.75
            C 169.75,165.00 153.25,169.00 147.75,174.50
              151.25,178.25 152.25,178.25 157.25,176.25
              162.25,174.25 167.00,170.75 177.75,174.75" />
    <path d="M 189.25,160.00
            C 171.25,151.50 159.75,152.25 148.75,153.50
              144.25,154.25 158.25,158.75 158.25,159.00
              158.25,159.25 167.75,156.50 187.75,162.50" />
    <path d="M 291.50,83.75
            C 335.00,84.50 341.75,87.25 345.00,88.00
              348.25,88.75 325.75,123.00 325.75,123.00
              325.75,123.00 325.50,152.25 324.00,157.50
              320.00,156.75 318.75,157.25 318.75,151.75
              319.25,147.75 321.50,116.75 320.50,104.25
              307.00,97.00 294.50,91.50 288.75,88.25
              283.00,85.00 296.25,86.50 314.75,95.50
              322.00,98.75 326.25,101.25 326.25,101.25
              326.25,101.25 325.75,111.50 325.75,111.50
              325.75,111.50 336.50,91.25 338.00,89.75
              321.00,92.00 306.25,88.25 300.25,87.75
              291.66,88.34 290.90,83.90 291.25,83.75" />
    <path d="M 247.00,69.00
            C 261.00,52.75 285.50,39.25 316.50,37.25
              317.25,38.50 316.25,40.75 316.00,40.50
              282.00,42.75 261.75,58.00 252.25,71.75" />
    <path d="M 194.50,123.50
            C 183.00,106.75 174.00,89.00 176.50,77.50
              177.50,74.00 211.75,81.75 219.25,81.50
              235.75,65.00 269.25,35.25 312.75,32.25
              313.75,32.50 311.00,34.75 311.00,34.75
              288.50,37.25 255.00,50.00 221.50,85.00
              215.25,85.50 195.75,83.75 192.00,83.50
              188.25,83.25 180.75,86.25 190.50,102.75
              192.75,107.25 196.00,113.75 196.75,118.75
              199.50,107.25 208.75,90.75 208.75,90.75
              208.75,90.75 212.00,92.00 212.00,92.00
              212.00,92.00 196.75,125.75 194.00,152.75
              192.75,162.00 187.50,155.25 188.00,149.50
              188.50,140.50 192.00,130.25 194.25,123.50" />
  </g>
</svg>
