<?xml version="1.0" encoding="UTF-8" standalone="no"?>
<!DOCTYPE svg PUBLIC "-//W3C//DTD SVG 20010904//EN"
              "http://www.w3.org/TR/2001/REC-SVG-20010904/DTD/svg10.dtd">

<svg xmlns="http://www.w3.org/2000/svg" width="220px" height="220px" viewBox="0 0 220 220">
  <g fill="black" stroke="none" stroke-width="0">
  <path id="hairs"
        d="M 122,48
           C 139,37 163,33 182,35
             179,37 180,39 177,38
             165,37 144,39 129,48
             130,50 131,52 131,52
             131,52 153,49 177,52
             176,55 175,56 168,55
             160,54 145,54 131,55" />
  <path id="eye1"
        d="M 121,126
           C 122,125 124,122 129,124
             131,126 129,130 128,129
             126,129 124,127 123,127
             123,128 121,127 121,127" />
  <path id="eye2"
        d="M 85,126
           C 87,122 94,123 94,126
             95,129 92,129 90,129
             88,128 84,128 84,126" />
  <path id="nose"
        d="M 111,152
           C 123,152 127,145 123,144
             119,142 107,142 101,145
             94,147 103,152 111,152" />
  <path id="teeth"
        d="M 95,197
           C 104,194 118,192 129,195
             128,188 129,172 129,172
             129,172 123,172 123,172
             123,172 122,188 122,190
             122,191 114,189 114,189
             114,189 114,174 114,174
             114,174 117,171 117,171
             117,171 112,167 112,167
             112,167 108,169 108,169
             108,169 110,187 109,190
             104,190 98,192 98,192
             98,189 95,172 95,174
             95,174 87,169 89,174
             92,179 94,197 94,197" />
  <path id="mouth"
        d="M 69,154
           C 74,168 93,180 108,165
             110,162 109,156 109,156
             109,156 114,155 114,155
             114,155 114,164 114,165
             113,168 133,178 146,158
             148,160 151,162 151,162
             151,162 132,186 111,168
             99,181 73,179 65,157" />
  <path id="whisker1"
        d="M 183,174
           C 204,174 214,185 216,188
             218,191 212,191 212,191
             212,191 205,180 184,178" />
  <path id="whisker2"
        d="M 170,180
           C 179,183 188,193 189,198
             190,202 184,202 184,202
             184,202 182,191 170,186
             167,184 169,180 169,180" />
  <path id="whisker3"
        d="M 180,166
           C 197,162 212,166 214,167
             215,168 214,172 214,172
             214,172 208,166 183,168" />
  <path id="whisker5"
        d="M 172,156
           C 183,149 198,147 206,150
             209,151 208,156 208,156 
             208,157 202,149 175,158" />
  <path id="whisker4"
        d="M 49,175
           C 35,174 30,181 24,194
             30,195 35,194 36,190
             37,185 43,178 48,175" />
  <path id="whisker6"
        d="M 7,175
           C 18,166 32,164 40,171
             33,171 22,170 15,179
             12,177 8,176 8,176" />
  <path id="whisker7"
        d="M 34,155
           C 25,147 9,151 3,156
             7,160 8,160 13,158
             18,156 23,152 33,156" />
  <path id="whisker8"
        d="M 45,142
           C 27,133 15,134 4,135
             0,136 14,140 14,141
             14,141 23,138 43,144" />
  <path id="ear"
        d="M 147,65
           C 191,66 197,69 201,70
             204,70 181,105 181,105
             181,105 181,134 180,139
             176,138 174,139 174,133
             175,129 177,98 176,86
             163,79 150,73 144,70
             139,67 152,68 170,77
             178,80 182,83 182,83
             182,83 181,93 181,93
             181,93 192,73 194,71
             177,74 162,70 156,69
             147,70 146,65 147,65" />
  <path id="hair"
        d="M 103,51
           C 117,34 141,21 172,19
             173,20 172,22 172,22
             138,24 117,40 108,53" />
  <path id="top"
        d="M 50,105
           C 39,88 30,71 32,59
             33,56 67,63 75,63
             91,47 125,17 168,14
             169,14 167,16 167,16
             144,19 111,32 77,67
             71,67 51,65 48,65
             44,65 36,68 46,84
             48,89 52,95 52,100
             55,89 64,72 64,72
             64,72 68,74 68,74
             68,74 52,107 50,134
             48,144 43,137 44,131
             44,122 48,112 50,105" />
             </g>
</svg>
